<svg width="11" height="14" viewBox="0 0 11 14" fill="none" xmlns="http://www.w3.org/2000/svg">
<path fill-rule="evenodd" clip-rule="evenodd" d="M10.5009 14C10.3683 14 10.2411 13.9473 10.1473 13.8536C10.0536 13.7598 10.0009 13.6326 10.0009 13.5V0.5C10.0009 0.367392 10.0536 0.240215 10.1473 0.146447C10.2411 0.0526784 10.3683 0 10.5009 0C10.6335 0 10.7607 0.0526784 10.8544 0.146447C10.9482 0.240215 11.0009 0.367392 11.0009 0.5V13.5C11.0009 13.6326 10.9482 13.7598 10.8544 13.8536C10.7607 13.9473 10.6335 14 10.5009 14ZM8.00089 7C8.00089 7.13261 7.94822 7.25979 7.85445 7.35355C7.76068 7.44732 7.6335 7.5 7.50089 7.5H1.70789L3.85489 9.646C3.90138 9.69249 3.93826 9.74768 3.96342 9.80842C3.98858 9.86916 4.00153 9.93426 4.00153 10C4.00153 10.0657 3.98858 10.1308 3.96342 10.1916C3.93826 10.2523 3.90138 10.3075 3.85489 10.354C3.80841 10.4005 3.75322 10.4374 3.69248 10.4625C3.63174 10.4877 3.56664 10.5006 3.50089 10.5006C3.43515 10.5006 3.37005 10.4877 3.30931 10.4625C3.24857 10.4374 3.19338 10.4005 3.14689 10.354L0.146894 7.354C0.10033 7.30755 0.0633878 7.25238 0.0381813 7.19163C0.0129749 7.13089 0 7.06577 0 7C0 6.93423 0.0129749 6.86911 0.0381813 6.80837C0.0633878 6.74762 0.10033 6.69245 0.146894 6.646L3.14689 3.646C3.24078 3.55211 3.36812 3.49937 3.50089 3.49937C3.63367 3.49937 3.76101 3.55211 3.85489 3.646C3.94878 3.73989 4.00153 3.86722 4.00153 4C4.00153 4.13278 3.94878 4.26011 3.85489 4.354L1.70789 6.5H7.50089C7.6335 6.5 7.76068 6.55268 7.85445 6.64645C7.94822 6.74021 8.00089 6.86739 8.00089 7Z" fill="#1A6A64"/>
</svg>
